<svg xmlns="http://www.w3.org/2000/svg" viewBox="0 0 666 76" font-family="system-ui, -apple-system, Segoe UI, sans-serif">
  <style>
    .chip-text { fill: #e6edf3; font-size: 13px; dominant-baseline: central; }
    .chip-anim { animation: chipBob 2.6s ease-in-out infinite; }
    @keyframes chipBob { 0%,100%{transform:translateY(0)} 50%{transform:translateY(-3px)} }
    @media (prefers-reduced-motion: reduce) { .chip-anim { animation: none !important; } }
  </style>
  <g>
    <rect x="0.0" y="0" width="90.6" height="34" rx="17.0" fill="#322b26" stroke="#8d6540"/>
    <g transform="translate(13.0,9.5)">
      <g class="chip-anim" style="animation-delay:0.0s" color="#ff9f43">
        <svg width="15" height="15" viewBox="0 0 24 24" style="overflow:visible"><path d="M5 10h12v5a4 4 0 0 1-4 4H9a4 4 0 0 1-4-4z" fill="none" stroke="currentColor" stroke-width="2"/><path d="M17 11h2a2 2 0 0 1 0 4h-2" fill="none" stroke="currentColor" stroke-width="2"/><path d="M8 3c-1 1.5 1 2.5 0 4M12 3c-1 1.5 1 2.5 0 4" fill="none" stroke="currentColor" stroke-width="1.5"/></svg>
      </g>
    </g>
    <text class="chip-text" x="34.0" y="18.0">Coding</text>
  </g>
  <g>
    <rect x="98.6" y="0" width="138.4" height="34" rx="17.0" fill="#322638" stroke="#8d5583"/>
    <g transform="translate(111.6,9.5)">
      <g class="chip-anim" style="animation-delay:0.25s" color="#ff7ad9">
        <svg width="15" height="15" viewBox="0 0 24 24" style="overflow:visible"><rect x="5" y="8" width="14" height="11" rx="3" fill="none" stroke="currentColor" stroke-width="2"/><circle cx="9" cy="13" r="1.6" fill="currentColor"/><circle cx="15" cy="13" r="1.6" fill="currentColor"/><path d="M12 5v3M9 5h6" stroke="currentColor" stroke-width="2"/><path d="M5 13H3M21 13h-2" stroke="currentColor" stroke-width="2"/></svg>
      </g>
    </g>
    <text class="chip-text" x="132.6" y="18.0">Playing with AI</text>
  </g>
  <g>
    <rect x="244.9" y="0" width="158.9" height="34" rx="17.0" fill="#273627" stroke="#659044"/>
    <g transform="translate(257.9,9.5)">
      <g class="chip-anim" style="animation-delay:0.5s" color="#a6ff4d">
        <svg width="15" height="15" viewBox="0 0 24 24" style="overflow:visible"><path d="M12 3l1.8 5.2L19 10l-5.2 1.8L12 17l-1.8-5.2L5 10l5.2-1.8z" fill="currentColor"/><path d="M18 14l.7 2.1L21 17l-2.3.9L18 20l-.7-2.1L15 17l2.3-.9z" fill="currentColor"/></svg>
      </g>
    </g>
    <text class="chip-text" x="278.9" y="18.0">Open to cool stuff</text>
  </g>
  <g>
    <rect x="411.9" y="0" width="137.1" height="34" rx="17.0" fill="#2c2b27" stroke="#756743"/>
    <g transform="translate(424.9,9.5)">
      <g class="chip-anim" style="animation-delay:0.75s" color="#caa24a">
        <svg width="15" height="15" viewBox="0 0 24 24" style="overflow:visible"><rect x="3" y="4" width="18" height="16" rx="3" fill="none" stroke="currentColor" stroke-width="2"/><path d="M6 10l3 2-3 2M11 15h5" fill="none" stroke="currentColor" stroke-width="2" stroke-linecap="round" stroke-linejoin="round"/></svg>
      </g>
    </g>
    <text class="chip-text" x="445.9" y="18.0">Coffee → Code</text>
  </g>
  <g>
    <rect x="557.0" y="0" width="108.6" height="34" rx="17.0" fill="#1a313d" stroke="#347d94"/>
    <g transform="translate(570.0,9.5)">
      <g class="chip-anim" style="animation-delay:1.0s" color="#39d3ff">
        <svg width="15" height="15" viewBox="0 0 24 24" style="overflow:visible"><path d="M12 2c-4 0-7 3-7 7 0 5 7 13 7 13s7-8 7-13c0-4-3-7-7-7z" fill="none" stroke="currentColor" stroke-width="2"/><circle cx="12" cy="9" r="2.5" fill="currentColor"/></svg>
      </g>
    </g>
    <text class="chip-text" x="591.0" y="18.0">Hangzhou</text>
  </g>
  <g>
    <rect x="0.0" y="42" width="128.0" height="34" rx="17.0" fill="#322531" stroke="#8d4e68"/>
    <g transform="translate(13.0,51.5)">
      <g class="chip-anim" style="animation-delay:1.25s" color="#ff6b9d">
        <svg width="15" height="15" viewBox="0 0 24 24" style="overflow:visible"><rect x="3" y="8" width="18" height="9" rx="4" fill="none" stroke="currentColor" stroke-width="2"/><path d="M7 12h3M8.5 10.5v3" stroke="currentColor" stroke-width="2" stroke-linecap="round"/><circle cx="16" cy="11.5" r="1.1" fill="currentColor"/><circle cx="18" cy="13.5" r="1.1" fill="currentColor"/></svg>
      </g>
    </g>
    <text class="chip-text" x="34.0" y="60.0">Video Games</text>
  </g>
  <g>
    <rect x="136.0" y="42" width="114.7" height="34" rx="17.0" fill="#322926" stroke="#8d5d3f"/>
    <g transform="translate(149.0,51.5)">
      <g class="chip-anim" style="animation-delay:1.5s" color="#ff8c42">
        <svg width="15" height="15" viewBox="0 0 24 24" style="overflow:visible"><circle cx="12" cy="12" r="9" fill="none" stroke="currentColor" stroke-width="2"/><path d="M3 12h18M12 3v18M5 6c4 3 10 3 14 0M5 18c4-3 10-3 14 0" fill="none" stroke="currentColor" stroke-width="1.5"/></svg>
      </g>
    </g>
    <text class="chip-text" x="170.0" y="60.0">Basketball</text>
  </g>
  <g>
    <rect x="258.7" y="42" width="73.1" height="34" rx="17.0" fill="#29283d" stroke="#6b5b94"/>
    <g transform="translate(271.7,51.5)">
      <g class="chip-anim" style="animation-delay:1.75s" color="#b388ff">
        <svg width="15" height="15" viewBox="0 0 24 24" style="overflow:visible"><path d="M14 2l8 8-2 2-3-1-4 4q1 2-1 4-2 2-4 1t-2-4q0-3 2-4t4 1l4-4-1-3z" fill="none" stroke="currentColor" stroke-width="1.6" stroke-linejoin="round"/><circle cx="8" cy="16" r="2" fill="none" stroke="currentColor" stroke-width="1.4"/></svg>
      </g>
    </g>
    <text class="chip-text" x="292.7" y="60.0">R&amp;B</text>
  </g>
  <g>
    <rect x="339.9" y="42" width="84.8" height="34" rx="17.0" fill="#322329" stroke="#8d484b"/>
    <g transform="translate(352.9,51.5)">
      <g class="chip-anim" style="animation-delay:2.0s" color="#ff5d5d">
        <svg width="15" height="15" viewBox="0 0 24 24" style="overflow:visible"><circle cx="12" cy="12" r="9" fill="none" stroke="currentColor" stroke-width="2"/><circle cx="9" cy="11" r="2.2" fill="currentColor"/><circle cx="15" cy="11" r="2.2" fill="currentColor"/><path d="M8 16q4 3 8 0" fill="none" stroke="currentColor" stroke-width="1.8" stroke-linecap="round"/></svg>
      </g>
    </g>
    <text class="chip-text" x="373.9" y="60.0">Anime</text>
  </g>
</svg>